<?xml version="1.0" encoding="utf-8"?>
<!-- Generator: Adobe Illustrator 23.0.2, SVG Export Plug-In . SVG Version: 6.00 Build 0)  -->
<svg version="1.1" id="Layer_1" xmlns="http://www.w3.org/2000/svg" xmlns:xlink="http://www.w3.org/1999/xlink" x="0px" y="0px"
	 viewBox="0 0 350 280" style="enable-background:new 0 0 350 280;" xml:space="preserve">
<style type="text/css">
	.st0{fill:#3C3C3B;}
	.st1{fill:#F39200;}
	.st2{fill:none;}
</style>
<g>
	<path class="st0" d="M175,157.24c1.82,0,3.6-0.14,5.34-0.4c0.03,0,0.05-0.01,0.08-0.01c0.01,0,0.02,0,0.03,0
		c0.1-0.01,0.2-0.03,0.3-0.04c0.05-0.01,0.1-0.01,0.16-0.02v-0.01c4.85-0.88,8.54-5.13,8.54-10.24c0-0.02,0-0.04,0-0.06
		c-0.01-2.53-0.93-4.84-2.44-6.63c-1.91-2.27-4.77-3.72-7.97-3.72c-0.55,0-1.08,0.04-1.61,0.12c0,0-0.01,0-0.01,0
		c-0.11,0.02-0.22,0.03-0.33,0.05c-0.68,0.09-1.38,0.14-2.08,0.14c-4.72,0-8.94-2.15-11.74-5.52c-2.2-2.65-3.52-6.04-3.52-9.74
		c0-8.42,6.85-15.26,15.26-15.26c7.27,0,13.36,5.11,14.89,11.92c0.24,1.08,0.37,2.2,0.37,3.35c0,1.99-0.39,3.88-1.08,5.63
		c0.05,0.03,0.1,0.06,0.16,0.08c1.01,0.56,6.81,3.99,9.91,10.42c-0.01,0.01-0.02,0.03-0.03,0.04c1.2,2.64,1.91,5.55,1.98,8.62
		c-0.03,4.37-1.38,7.78-3.17,10.39c4.25-4.4,8.46-10.51,8.33-17.37c2.99-5.25,4.7-11.33,4.7-17.81c0-19.93-16.15-36.08-36.08-36.08
		s-36.08,16.15-36.08,36.08c0,13.68,7.61,25.58,18.83,31.7C162.88,155.65,168.75,157.24,175,157.24z M175,150.3
		c-2.01,0-3.98-0.21-5.88-0.6c-4.52-0.93-8.66-2.91-12.15-5.68c-6.76-5.34-11.11-13.6-11.11-22.87c0-16.07,13.07-29.14,29.14-29.14
		s29.14,13.07,29.14,29.14c0,2.76-0.39,5.43-1.11,7.96c-1.43-2.08-3.36-4.19-5.9-6.29c0.04-0.55,0.07-1.11,0.07-1.67
		c0-12.24-9.96-22.2-22.2-22.2c-12.24,0-22.2,9.96-22.2,22.2c0,6.03,2.42,11.5,6.34,15.51c2.77,2.83,6.29,4.93,10.23,5.97
		c1.8,0.47,3.69,0.73,5.63,0.73c1.07,0,2.12-0.08,3.14-0.23c0.22-0.03,0.44-0.07,0.66-0.11c0.08-0.01,0.15-0.01,0.23-0.01
		c1.93,0,3.5,1.56,3.5,3.5c0,1.56-1.02,2.88-2.43,3.33c-0.34,0.06-0.68,0.12-1.02,0.16C177.74,150.2,176.38,150.3,175,150.3z"/>
	<circle class="st1" cx="175" cy="121.16" r="10.88"/>
</g>
<g>
	<path class="st1" d="M133.46,174.92l0.58-2.74h7.3l1.55-7.3h2.74l-2.13,10.04H133.46z M142.99,164.42l0.29-1.37h2.74l-0.29,1.37
		H142.99z M143.48,162.14l0.19-0.91h2.74l-0.19,0.91H143.48z M143.96,159.86l0.1-0.46h2.74l-0.1,0.46H143.96z"/>
	<path class="st1" d="M145.33,174.92l1.36-6.39h2.74l-0.77,3.65h4.56l0.97-4.56h-1.83l0.58-2.74h4.56l-2.13,10.04H145.33z
		 M146.88,167.62l0.58-2.74h0.46l-0.58,2.74H146.88z M148.71,167.62l0.58-2.74h0.91l-0.58,2.74H148.71z M150.53,167.62l0.58-2.74
		h1.37l-0.58,2.74H150.53z"/>
	<path class="st1" d="M157.97,171.27l0.58-2.74h4.11l-0.58,2.74H157.97z M162.53,171.27l0.58-2.74h1.83l-0.58,2.74H162.53z
		 M165.27,171.27l0.58-2.74h0.91l-0.58,2.74H165.27z M167.55,171.27l0.58-2.74h0.46l-0.58,2.74H167.55z"/>
	<path class="st1" d="M169.07,174.92l0.58-2.74h0.46l-0.58,2.74H169.07z M174.54,174.92l0.58-2.74h1.83l0.19-0.91h-7.3l1.36-6.39
		h4.56l-0.58,2.74h-1.83l-0.19,0.91h7.3l-1.36,6.39H174.54z M170.89,174.92l0.58-2.74h0.91l-0.58,2.74H170.89z M172.72,174.92
		l0.58-2.74h1.37l-0.58,2.74H172.72z M175.64,167.62l0.58-2.74h1.37l-0.58,2.74H175.64z M177.92,167.62l0.58-2.74h0.91l-0.58,2.74
		H177.92z M180.2,167.62l0.58-2.74h0.46l-0.58,2.74H180.2z"/>
	<path class="st1" d="M184.58,174.92l1.55-7.3h-3.65l0.58-2.74h4.56l-0.58,2.74h0.46l0.58-2.74h1.37l-2.13,10.04H184.58z
		 M183.42,180.4l0.1-0.46h2.74l-0.1,0.46H183.42z M183.81,178.57l0.19-0.91h2.74l-0.19,0.91H183.81z M184.2,176.75l0.29-1.37h2.74
		l-0.29,1.37H184.2z M189.79,167.62l0.58-2.74h0.91l-0.58,2.74H189.79z M192.07,167.62l0.58-2.74h0.46l-0.58,2.74H192.07z"/>
	<path class="st1" d="M192.8,174.92l1.36-6.39h7.3l0.2-0.91h-1.83l0.58-2.74h4.56l-2.13,10.04h-2.74l0.77-3.65h-4.56l-0.77,3.65
		H192.8z M194.36,167.62l0.58-2.74h0.46l-0.58,2.74H194.36z M196.18,167.62l0.58-2.74h0.91l-0.58,2.74H196.18z M198.01,167.62
		l0.58-2.74h1.37l-0.58,2.74H198.01z M198.94,180.4l0.1-0.46h2.74l-0.1,0.46H198.94z M199.33,178.57l0.19-0.91h2.74l-0.19,0.91
		H199.33z M199.71,176.75l0.29-1.37h2.74l-0.29,1.37H199.71z"/>
	<path class="st1" d="M203.51,180.4l0.1-0.46h2.74l-0.1,0.46H203.51z M203.9,178.57l0.19-0.91h2.74l-0.19,0.91H203.9z
		 M204.28,176.75l0.29-1.37h2.74l-0.29,1.37H204.28z M204.67,174.92l1.36-6.39h7.3l0.2-0.91h-1.83l0.58-2.74h4.56l-1.36,6.39h-3.65
		l-0.19,0.91h3.65l-0.58,2.74h-6.39l0.77-3.65h-0.91l-0.77,3.65H204.67z M206.23,167.62l0.58-2.74h0.46l-0.58,2.74H206.23z
		 M208.05,167.62l0.58-2.74h0.91l-0.58,2.74H208.05z M209.88,167.62l0.58-2.74h1.37l-0.58,2.74H209.88z"/>
</g>
<g>
	<polygon class="st2" points="184.13,164.08 223.62,164.08 223.62,164.08 184.13,164.08 	"/>
</g>
<g>
</g>
<g>
</g>
<g>
</g>
<g>
</g>
<g>
</g>
<g>
</g>
</svg>
